<svg width="100" height="114" viewBox="0 0 100 114" fill="none" xmlns="http://www.w3.org/2000/svg">
<g clip-path="url(#clip0)">
<path d="M85.0381 0.761719H14.929C12.5642 0.768712 10.2985 1.71211 8.62765 3.38548C6.95675 5.05885 6.01672 7.32595 6.01323 9.6907V18.1435H11.9791C12.986 18.1435 13.9516 18.5435 14.6636 19.2554C15.3756 19.9674 15.7756 20.9331 15.7756 21.9399C15.7756 22.9468 15.3756 23.9125 14.6636 24.6245C13.9516 25.3364 12.986 25.7364 11.9791 25.7364H6V42.0202H11.9659C12.4842 41.9897 13.0033 42.0653 13.4912 42.2426C13.9792 42.4199 14.4258 42.6951 14.8036 43.0513C15.1814 43.4074 15.4824 43.837 15.6881 44.3137C15.8939 44.7904 16 45.3041 16 45.8233C16 46.3425 15.8939 46.8562 15.6881 47.3329C15.4824 47.8096 15.1814 48.2392 14.8036 48.5954C14.4258 48.9515 13.9792 49.2267 13.4912 49.404C13.0033 49.5813 12.4842 49.657 11.9659 49.6264H6V65.9764H11.9659C12.4842 65.9458 13.0033 66.0215 13.4912 66.1988C13.9792 66.3761 14.4258 66.6513 14.8036 67.0074C15.1814 67.3636 15.4824 67.7932 15.6881 68.2699C15.8939 68.7465 16 69.2603 16 69.7795C16 70.2987 15.8939 70.8124 15.6881 71.2891C15.4824 71.7658 15.1814 72.1954 14.8036 72.5515C14.4258 72.9077 13.9792 73.1828 13.4912 73.3601C13.0033 73.5374 12.4842 73.6131 11.9659 73.5825H6V89.787H11.9659C12.4842 89.7564 13.0033 89.8321 13.4912 90.0094C13.9792 90.1867 14.4258 90.4619 14.8036 90.818C15.1814 91.1742 15.4824 91.6038 15.6881 92.0805C15.8939 92.5572 16 93.0709 16 93.5901C16 94.1093 15.8939 94.623 15.6881 95.0997C15.4824 95.5764 15.1814 96.006 14.8036 96.3622C14.4258 96.7183 13.9792 96.9935 13.4912 97.1708C13.0033 97.3481 12.4842 97.4238 11.9659 97.3932H6V105.846C6.00698 108.208 6.94856 110.472 8.61908 112.143C10.2896 113.813 12.5533 114.755 14.9158 114.762H85.0248C87.3873 114.755 89.651 113.813 91.3215 112.143C92.992 110.472 93.9336 108.208 93.9406 105.846V9.6907C93.9371 7.32823 92.9989 5.06313 91.3309 3.39013C89.6628 1.71713 87.4005 0.772201 85.0381 0.761719ZM63.8731 79.6278C61.1719 81.657 57.9726 82.9185 54.6134 83.2788V88.8478C54.6134 89.9003 54.1953 90.9097 53.451 91.6539C52.7068 92.3981 51.6974 92.8162 50.6449 92.8162H48.9253C47.8728 92.8162 46.8634 92.3981 46.1192 91.6539C45.3749 90.9097 44.9568 89.9003 44.9568 88.8478V83.1729C43.3234 82.8792 41.7267 82.4091 40.1947 81.7708C37.492 80.697 35.1613 78.8581 33.488 76.4795C31.8967 74.1135 31.0744 71.314 31.1334 68.4633V66.8759C31.13 66.7605 31.1506 66.6457 31.1938 66.5386C31.2371 66.4316 31.3021 66.3347 31.3848 66.2542C31.4633 66.1725 31.558 66.108 31.6627 66.0648C31.7674 66.0215 31.88 66.0004 31.9933 66.0028H40.2741C40.3874 66.0004 40.4999 66.0215 40.6046 66.0648C40.7094 66.108 40.804 66.1725 40.8826 66.2542C40.9652 66.3347 41.0303 66.4316 41.0735 66.5386C41.1168 66.6457 41.1374 66.7605 41.1339 66.8759V67.9606C41.1429 68.9302 41.3886 69.8829 41.8497 70.7359C42.3108 71.5889 42.9733 72.3164 43.7795 72.855C45.9166 74.2864 48.4599 74.9872 51.0285 74.8524C53.0772 75.0138 55.1154 74.4314 56.7695 73.2122C57.3588 72.7327 57.8333 72.1274 58.1584 71.4408C58.4834 70.7541 58.6507 70.0034 58.6479 69.2437C58.6653 68.7006 58.5709 68.1597 58.3707 67.6546C58.1705 67.1494 57.8686 66.6908 57.4839 66.3071C56.5724 65.4187 55.5052 64.7058 54.3356 64.2038C53.0128 63.5953 50.8963 62.7619 47.9861 61.7037C45.1644 60.7668 42.4145 59.6262 39.7582 58.2908C37.5366 57.1556 35.601 55.5321 34.0965 53.5419C32.5276 51.3883 31.7264 48.7706 31.8213 46.1077C31.7635 43.3982 32.5443 40.7371 34.0569 38.4883C35.6264 36.2676 37.7905 34.5345 40.3005 33.4881C41.7812 32.8647 43.331 32.4206 44.9171 32.1653V26.874C44.9171 25.8215 45.3352 24.8122 46.0795 24.0679C46.8237 23.3237 47.8331 22.9056 48.8856 22.9056H50.7375C51.79 22.9056 52.7994 23.3237 53.5436 24.0679C54.2879 24.8122 54.706 25.8215 54.706 26.874V32.3108C56.3083 32.6239 57.8702 33.1165 59.3623 33.7791C62.073 34.9476 64.4078 36.8429 66.1086 39.2556C67.7489 41.6568 68.5998 44.5098 68.5426 47.4173V48.502C68.5435 48.7342 68.4532 48.9574 68.2912 49.1237C68.2102 49.2058 68.1132 49.2704 68.0063 49.3136C67.8994 49.3568 67.7848 49.3777 67.6695 49.3751H59.2961C59.1828 49.3775 59.0703 49.3564 58.9655 49.3131C58.8608 49.2699 58.7662 49.2054 58.6876 49.1237C58.605 49.0432 58.5399 48.9463 58.4967 48.8393C58.4534 48.7323 58.4328 48.6174 58.4363 48.502V47.9332C58.4373 46.9364 58.2129 45.9522 57.78 45.0542C57.347 44.1563 56.7167 43.3678 55.9362 42.7478C53.9822 41.2268 51.5431 40.4654 49.0708 40.6048C47.1977 40.5027 45.3418 41.0085 43.7795 42.0467C43.1645 42.5054 42.6691 43.1056 42.3352 43.7964C42.0014 44.4872 41.8389 45.2482 41.8615 46.0151C41.8274 47.1367 42.2306 48.2277 42.9858 49.0576C43.937 49.9559 45.0564 50.6572 46.2796 51.1212C47.7612 51.7826 50.0453 52.6645 53.1318 53.7668C55.8859 54.7429 58.588 55.86 61.2274 57.1135C63.278 58.158 65.082 59.6282 66.5187 61.4259C68.1611 63.5459 68.9957 66.1811 68.8733 68.8601C68.9566 70.9233 68.5464 72.9765 67.6767 74.8493C66.8071 76.7221 65.5031 78.3603 63.8731 79.6278V79.6278ZM89.615 103.147C89.6072 105.107 88.9557 107.01 87.7607 108.564C86.5656 110.118 84.8933 111.235 83.0009 111.746C84.4404 110.123 85.2357 108.029 85.2365 105.859V9.6907C85.2455 7.52428 84.4594 5.42981 83.0274 3.80419C84.9198 4.31446 86.5921 5.43234 87.7871 6.98587C88.9821 8.53939 89.6336 10.4425 89.6414 12.4025L89.615 103.147Z" fill="#16884A"/>
</g>
<defs>
<clipPath id="clip0">
<rect width="100" height="114" fill="white"/>
</clipPath>
</defs>
</svg>
