<svg width="84" height="29" viewBox="0 0 84 29" fill="none" xmlns="http://www.w3.org/2000/svg">
<path d="M27.3594 6.85938H3.68691C1.66947 6.85938 0.0296138 8.47795 0 10.4882H1.69538C2.33948 10.4882 2.85773 11.0093 2.85773 11.6486C2.85773 12.2916 2.33578 12.8089 1.69538 12.8089H0V14.3425H1.69538C2.33948 14.3425 2.85773 14.8636 2.85773 15.5029C2.85773 16.1459 2.33578 16.6632 1.69538 16.6632H0V18.1968H1.69538C2.33948 18.1968 2.85773 18.7179 2.85773 19.3572C2.85773 19.9965 2.33578 20.5175 1.69538 20.5175H0V22.0511H1.69538C2.33948 22.0511 2.85773 22.5722 2.85773 23.2115C2.85773 23.8508 2.33578 24.3718 1.69538 24.3718H0C0.0259121 26.3821 1.66577 28.0007 3.68691 28.0007H27.3594C29.3954 28.0007 31.0464 26.3525 31.0464 24.3201V10.5252C31.0464 8.50751 29.3954 6.85938 27.3594 6.85938ZM15.2881 16.1976L17.1982 17.0882C18.2828 17.5945 18.8566 18.6292 18.6641 19.7304C18.5086 20.6136 17.8793 21.3046 17.0131 21.6187V21.9329C17.0131 22.4946 16.4653 22.9417 15.8286 22.8567C15.3177 22.7902 14.9475 22.3726 14.9475 21.9033V21.6816C14.0258 21.434 13.2448 20.8279 12.845 19.9928C12.6192 19.5198 12.8561 18.9692 13.3817 18.7622C13.9037 18.5553 14.5144 18.7733 14.7402 19.2463C14.9587 19.7008 15.4769 19.978 16.0136 19.93L16.1062 19.9189C16.506 19.8597 16.6022 19.5604 16.6244 19.4311C16.6429 19.3202 16.6763 18.9433 16.2543 18.7474L14.3479 17.8568C13.2522 17.3469 12.671 16.2641 12.8968 15.1629C13.1041 14.1652 13.8926 13.4298 14.9475 13.2117V12.9494C14.9475 12.3877 15.4954 11.9405 16.1321 12.0255C16.6429 12.092 17.0131 12.5096 17.0131 12.9789V13.4113C17.7461 13.7106 18.3568 14.2465 18.6974 14.9523C18.9232 15.4253 18.6863 15.9759 18.1606 16.1828C17.6387 16.3898 17.0279 16.1717 16.8021 15.6987C16.5837 15.2442 16.0655 14.9744 15.5287 15.0151C15.066 15.0594 14.955 15.3735 14.929 15.5103C14.8994 15.6211 14.8587 15.9981 15.2881 16.1976Z" fill="white"/>
<path d="M29.8571 21.7648L27.1882 4.50736C27.1104 3.99739 26.6329 3.65003 26.1221 3.72763L2.93449 7.30107C2.42365 7.37867 2.0757 7.85538 2.15343 8.36534L4.82237 25.6228C4.889 26.0589 5.25177 26.3803 5.67747 26.4099C5.51089 26.4247 5.35172 26.3914 5.20735 26.3249L5.47017 27.016C5.65156 27.4964 6.19201 27.7403 6.67323 27.5555L12.3406 25.4085L29.0724 22.8291C29.5869 22.7478 29.9349 22.2711 29.8571 21.7648Z" stroke="white" stroke-width="1.99" stroke-miterlimit="10"/>
<path fill-rule="evenodd" clip-rule="evenodd" d="M24.0014 1.32563L24.0021 1.32748L25.3812 4.94911L2.27051 7.83648L21.3311 0.138399L21.3338 0.137389C22.4124 -0.275123 23.604 0.276067 24.0014 1.32563ZM21.9554 2.2896L22.2906 3.16984L17.8089 3.86133L21.9554 2.2896Z" fill="white"/>
<path d="M38.0375 21.9678C37.4036 21.9678 36.8489 21.8689 36.3735 21.6712C35.898 21.4655 35.5295 21.1768 35.268 20.805C35.0145 20.4253 34.8877 19.9863 34.8877 19.4879V19.2268C34.8877 19.1873 34.8996 19.1557 34.9234 19.1319C34.955 19.1003 34.9907 19.0845 35.0303 19.0845H36.3853C36.425 19.0845 36.4567 19.1003 36.4804 19.1319C36.5121 19.1557 36.528 19.1873 36.528 19.2268V19.4048C36.528 19.7213 36.6746 19.9902 36.9678 20.2117C37.2609 20.4253 37.6571 20.5321 38.1564 20.5321C38.5763 20.5321 38.8893 20.4451 39.0954 20.271C39.3014 20.0891 39.4044 19.8676 39.4044 19.6066C39.4044 19.4167 39.341 19.2585 39.2142 19.1319C39.0874 18.9974 38.9131 18.8827 38.6912 18.7878C38.4773 18.685 38.1326 18.5465 37.6571 18.3725C37.1262 18.1906 36.6746 18.0047 36.3021 17.8148C35.9376 17.625 35.6286 17.3679 35.375 17.0436C35.1294 16.7113 35.0066 16.3039 35.0066 15.8214C35.0066 15.3468 35.1294 14.9315 35.375 14.5755C35.6207 14.2195 35.9614 13.9466 36.3972 13.7568C36.833 13.5669 37.3362 13.472 37.9068 13.472C38.509 13.472 39.0439 13.5788 39.5114 13.7924C39.9868 14.0059 40.3553 14.3065 40.6168 14.6942C40.8862 15.0739 41.0209 15.5168 41.0209 16.0231V16.2011C41.0209 16.2406 41.005 16.2762 40.9734 16.3079C40.9496 16.3316 40.9179 16.3435 40.8783 16.3435H39.5114C39.4717 16.3435 39.4361 16.3316 39.4044 16.3079C39.3806 16.2762 39.3687 16.2406 39.3687 16.2011V16.1062C39.3687 15.7739 39.2301 15.4931 38.9527 15.2637C38.6833 15.0264 38.3109 14.9077 37.8354 14.9077C37.463 14.9077 37.1698 14.9868 36.9559 15.145C36.7498 15.3033 36.6468 15.5208 36.6468 15.7977C36.6468 15.9954 36.7063 16.1615 36.8251 16.296C36.9519 16.4305 37.1342 16.5531 37.3719 16.6639C37.6175 16.7667 37.9939 16.9091 38.5011 17.091C39.0637 17.2967 39.5034 17.4786 39.8204 17.6368C40.1453 17.7951 40.4345 18.0324 40.6881 18.3488C40.9496 18.6573 41.0803 19.0607 41.0803 19.5591C41.0803 20.3027 40.8069 20.892 40.2602 21.3271C39.7134 21.7542 38.9725 21.9678 38.0375 21.9678Z" fill="white"/>
<path d="M44.845 21.9678C44.1793 21.9678 43.6088 21.7938 43.1334 21.4457C42.6579 21.0977 42.333 20.623 42.1587 20.0219C42.0478 19.6501 41.9923 19.2466 41.9923 18.8115C41.9923 18.3448 42.0478 17.9256 42.1587 17.5538C42.341 16.9684 42.6698 16.5096 43.1452 16.1774C43.6207 15.8451 44.1912 15.679 44.8568 15.679C45.5066 15.679 46.0613 15.8451 46.5209 16.1774C46.9805 16.5017 47.3054 16.9565 47.4955 17.5419C47.6223 17.9374 47.6857 18.3527 47.6857 18.7878C47.6857 19.215 47.6303 19.6145 47.5193 19.9863C47.345 20.6033 47.0201 21.0898 46.5447 21.4457C46.0771 21.7938 45.5106 21.9678 44.845 21.9678ZM44.845 20.5321C45.1064 20.5321 45.3283 20.453 45.5106 20.2948C45.6928 20.1366 45.8236 19.919 45.9028 19.6421C45.9662 19.389 45.9979 19.1121 45.9979 18.8115C45.9979 18.4793 45.9662 18.1985 45.9028 17.9691C45.8156 17.7001 45.6809 17.4905 45.4987 17.3402C45.3164 17.1899 45.0946 17.1148 44.8331 17.1148C44.5636 17.1148 44.3378 17.1899 44.1556 17.3402C43.9812 17.4905 43.8544 17.7001 43.7752 17.9691C43.7118 18.1589 43.6801 18.4398 43.6801 18.8115C43.6801 19.1675 43.7079 19.4444 43.7633 19.6421C43.8426 19.919 43.9733 20.1366 44.1556 20.2948C44.3457 20.453 44.5755 20.5321 44.845 20.5321Z" fill="white"/>
<path d="M54.344 13.5669C54.3837 13.5669 54.4154 13.5827 54.4391 13.6144C54.4708 13.6381 54.4867 13.6697 54.4867 13.7093V14.8721C54.4867 14.9117 54.4708 14.9473 54.4391 14.9789C54.4154 15.0027 54.3837 15.0145 54.344 15.0145H52.2164C52.1768 15.0145 52.157 15.0343 52.157 15.0739V21.7305C52.157 21.7701 52.1412 21.8057 52.1095 21.8373C52.0857 21.861 52.054 21.8729 52.0144 21.8729H50.6237C50.5841 21.8729 50.5484 21.861 50.5167 21.8373C50.493 21.8057 50.4811 21.7701 50.4811 21.7305V15.0739C50.4811 15.0343 50.4613 15.0145 50.4216 15.0145H48.3535C48.3139 15.0145 48.2782 15.0027 48.2465 14.9789C48.2227 14.9473 48.2108 14.9117 48.2108 14.8721V13.7093C48.2108 13.6697 48.2227 13.6381 48.2465 13.6144C48.2782 13.5827 48.3139 13.5669 48.3535 13.5669H54.344Z" fill="white"/>
<path d="M58.6344 15.679C59.2684 15.679 59.7795 15.8728 60.1677 16.2604C60.556 16.648 60.7502 17.1741 60.7502 17.8386V21.7305C60.7502 21.7701 60.7343 21.8057 60.7026 21.8373C60.6788 21.861 60.6471 21.8729 60.6075 21.8729H59.2169C59.1772 21.8729 59.1416 21.861 59.1099 21.8373C59.0861 21.8057 59.0742 21.7701 59.0742 21.7305V18.1827C59.0742 17.8662 58.9831 17.6092 58.8008 17.4114C58.6265 17.2136 58.3928 17.1148 58.0996 17.1148C57.8064 17.1148 57.5687 17.2136 57.3864 17.4114C57.2121 17.6092 57.1249 17.8662 57.1249 18.1827V21.7305C57.1249 21.7701 57.1091 21.8057 57.0774 21.8373C57.0536 21.861 57.0219 21.8729 56.9823 21.8729H55.5916C55.552 21.8729 55.5163 21.861 55.4846 21.8373C55.4609 21.8057 55.449 21.7701 55.449 21.7305V13.7093C55.449 13.6697 55.4609 13.6381 55.4846 13.6144C55.5163 13.5827 55.552 13.5669 55.5916 13.5669H56.9823C57.0219 13.5669 57.0536 13.5827 57.0774 13.6144C57.1091 13.6381 57.1249 13.6697 57.1249 13.7093V16.3316C57.1249 16.3553 57.1328 16.3712 57.1487 16.3791C57.1645 16.387 57.1764 16.383 57.1843 16.3672C57.5092 15.9084 57.9926 15.679 58.6344 15.679Z" fill="white"/>
<path d="M65.515 15.9163C65.515 15.8768 65.5269 15.8451 65.5506 15.8214C65.5823 15.7898 65.618 15.7739 65.6576 15.7739H67.0483C67.0879 15.7739 67.1196 15.7898 67.1434 15.8214C67.1751 15.8451 67.1909 15.8768 67.1909 15.9163V21.7305C67.1909 21.7701 67.1751 21.8057 67.1434 21.8373C67.1196 21.861 67.0879 21.8729 67.0483 21.8729H65.6576C65.618 21.8729 65.5823 21.861 65.5506 21.8373C65.5269 21.8057 65.515 21.7701 65.515 21.7305V21.3271C65.515 21.3033 65.5071 21.2915 65.4912 21.2915C65.4754 21.2836 65.4595 21.2915 65.4437 21.3152C65.1267 21.7424 64.6354 21.956 63.9698 21.956C63.3676 21.956 62.8723 21.774 62.484 21.4101C62.0958 21.0463 61.9016 20.536 61.9016 19.8795V15.9163C61.9016 15.8768 61.9135 15.8451 61.9373 15.8214C61.969 15.7898 62.0046 15.7739 62.0442 15.7739H63.423C63.4627 15.7739 63.4943 15.7898 63.5181 15.8214C63.5498 15.8451 63.5657 15.8768 63.5657 15.9163V19.4642C63.5657 19.7806 63.6489 20.0377 63.8153 20.2354C63.9896 20.4332 64.2273 20.5321 64.5284 20.5321C64.7978 20.5321 65.0197 20.453 65.194 20.2948C65.3684 20.1286 65.4754 19.9151 65.515 19.654V15.9163Z" fill="white"/>
<path d="M71.4571 21.9678C70.839 21.9678 70.2962 21.8492 69.8287 21.6119C69.3612 21.3666 69.0006 21.0265 68.7471 20.5914C68.4935 20.1563 68.3667 19.654 68.3667 19.0845V16.3435C68.3667 15.7739 68.4935 15.2716 68.7471 14.8365C69.0006 14.4015 69.3612 14.0653 69.8287 13.828C70.2962 13.5906 70.839 13.472 71.4571 13.472C72.0672 13.472 72.6021 13.5867 73.0617 13.8161C73.5292 14.0376 73.8897 14.358 74.1433 14.7772C74.4048 15.1886 74.5356 15.6671 74.5356 16.213C74.5356 16.2842 74.488 16.3277 74.3929 16.3435L73.0023 16.4265H72.9785C72.8992 16.4265 72.8596 16.383 72.8596 16.296C72.8596 15.8768 72.7289 15.5406 72.4674 15.2874C72.2138 15.0343 71.877 14.9077 71.4571 14.9077C71.0292 14.9077 70.6845 15.0343 70.423 15.2874C70.1694 15.5406 70.0426 15.8768 70.0426 16.296V19.1557C70.0426 19.567 70.1694 19.8992 70.423 20.1524C70.6845 20.4055 71.0292 20.5321 71.4571 20.5321C71.877 20.5321 72.2138 20.4055 72.4674 20.1524C72.7289 19.8992 72.8596 19.567 72.8596 19.1557C72.8596 19.0686 72.9072 19.0251 73.0023 19.0251L74.3929 19.0845C74.4325 19.0845 74.4642 19.0963 74.488 19.1201C74.5197 19.1438 74.5356 19.1715 74.5356 19.2031C74.5356 19.7489 74.4048 20.2315 74.1433 20.6507C73.8897 21.07 73.5292 21.3943 73.0617 21.6237C72.6021 21.8531 72.0672 21.9678 71.4571 21.9678Z" fill="white"/>
<path d="M78.843 15.679C79.477 15.679 79.9881 15.8728 80.3763 16.2604C80.7646 16.648 80.9588 17.1741 80.9588 17.8386V21.7305C80.9588 21.7701 80.9429 21.8057 80.9112 21.8373C80.8874 21.861 80.8557 21.8729 80.8161 21.8729H79.4255C79.3858 21.8729 79.3502 21.861 79.3185 21.8373C79.2947 21.8057 79.2828 21.7701 79.2828 21.7305V18.1827C79.2828 17.8662 79.1917 17.6092 79.0094 17.4114C78.8351 17.2136 78.6014 17.1148 78.3082 17.1148C78.015 17.1148 77.7773 17.2136 77.595 17.4114C77.4207 17.6092 77.3335 17.8662 77.3335 18.1827V21.7305C77.3335 21.7701 77.3177 21.8057 77.286 21.8373C77.2622 21.861 77.2305 21.8729 77.1909 21.8729H75.8002C75.7606 21.8729 75.7249 21.861 75.6932 21.8373C75.6695 21.8057 75.6576 21.7701 75.6576 21.7305V13.7093C75.6576 13.6697 75.6695 13.6381 75.6932 13.6144C75.7249 13.5827 75.7606 13.5669 75.8002 13.5669H77.1909C77.2305 13.5669 77.2622 13.5827 77.286 13.6144C77.3177 13.6381 77.3335 13.6697 77.3335 13.7093V16.3316C77.3335 16.3553 77.3414 16.3712 77.3573 16.3791C77.3731 16.387 77.385 16.383 77.3929 16.3672C77.7178 15.9084 78.2012 15.679 78.843 15.679Z" fill="white"/>
<path d="M83.0611 15.0857C82.7917 15.0857 82.5659 14.9987 82.3836 14.8247C82.2093 14.6427 82.1221 14.4173 82.1221 14.1483C82.1221 13.8715 82.2093 13.646 82.3836 13.472C82.5579 13.298 82.7838 13.2109 83.0611 13.2109C83.3384 13.2109 83.5643 13.298 83.7386 13.472C83.9129 13.646 84.0001 13.8715 84.0001 14.1483C84.0001 14.4173 83.909 14.6427 83.7267 14.8247C83.5524 14.9987 83.3305 15.0857 83.0611 15.0857ZM82.3479 21.8729C82.3083 21.8729 82.2727 21.861 82.241 21.8373C82.2172 21.8057 82.2053 21.7701 82.2053 21.7305V15.9045C82.2053 15.8649 82.2172 15.8333 82.241 15.8095C82.2727 15.7779 82.3083 15.7621 82.3479 15.7621H83.7386C83.7782 15.7621 83.8099 15.7779 83.8337 15.8095C83.8654 15.8333 83.8812 15.8649 83.8812 15.9045V21.7305C83.8812 21.7701 83.8654 21.8057 83.8337 21.8373C83.8099 21.861 83.7782 21.8729 83.7386 21.8729H82.3479Z" fill="white"/>
</svg>
