<svg width="100" height="84" viewBox="0 0 100 84" fill="none" xmlns="http://www.w3.org/2000/svg">
<path d="M88.13 18.8301H15.54C9.34998 18.8301 4.31997 23.8101 4.23997 29.9801H9.42998C11.4 29.9801 13 31.5801 13 33.5501C13 35.5201 11.4 37.1201 9.42998 37.1201H4.22998V41.8301H9.42998C11.4 41.8301 13 43.4301 13 45.4001C13 47.3701 11.4 48.9701 9.42998 48.9701H4.22998V53.6801H9.42998C11.4 53.6801 13 55.2801 13 57.2501C13 59.2201 11.4 60.8201 9.42998 60.8201H4.22998V65.5301H9.42998C11.4 65.5301 13 67.1301 13 69.1001C13 71.0701 11.4 72.6701 9.42998 72.6701H4.23997C4.31997 78.8401 9.34998 83.8201 15.54 83.8201H88.13C94.37 83.8201 99.44 78.7601 99.44 72.5101V30.1301C99.44 23.8901 94.37 18.8301 88.13 18.8301ZM51.11 47.5101L56.96 50.2401C60.28 51.7901 62.05 54.9801 61.45 58.3501C60.97 61.0601 59.05 63.1901 56.38 64.1501V65.1101C56.38 66.8401 54.7 68.2101 52.74 67.9501C51.17 67.7501 50.04 66.4601 50.04 65.0201V64.3401C47.21 63.5801 44.82 61.7201 43.59 59.1501C42.89 57.7001 43.63 56.0001 45.23 55.3701C46.84 54.7401 48.7 55.4101 49.4 56.8601C50.07 58.2601 51.66 59.1001 53.31 58.9701L53.6 58.9401C54.82 58.7601 55.12 57.8301 55.19 57.4401C55.25 57.1001 55.34 55.9501 54.05 55.3401L48.2 52.6101C44.84 51.0401 43.06 47.7201 43.75 44.3301C44.38 41.2701 46.8 39.0101 50.04 38.3301V37.5201C50.04 35.7901 51.72 34.4201 53.68 34.6801C55.25 34.8801 56.38 36.1701 56.38 37.6101V38.9401C58.63 39.8601 60.5 41.5101 61.54 43.6801C62.24 45.1401 61.5 46.8301 59.9 47.4601C58.29 48.0901 56.43 47.4201 55.73 45.9701C55.06 44.5701 53.47 43.7501 51.83 43.8601C50.41 43.9901 50.07 44.9701 49.99 45.3801C49.92 45.7301 49.79 46.8901 51.11 47.5101Z" fill="#EB610E"/>
<path d="M95.7898 64.6101L87.5998 11.6002C87.3598 10.0402 85.8998 8.97015 84.3398 9.21015L13.2398 20.1902C11.6798 20.4302 10.6098 21.8902 10.8498 23.4502L19.0398 76.4602C19.2498 77.8002 20.3598 78.7802 21.6598 78.8802C21.1498 78.9202 20.6598 78.8202 20.2198 78.6202L21.0198 80.7402C21.5798 82.2202 23.2298 82.9602 24.7098 82.4002L42.0898 75.8001L93.3998 67.8802C94.9598 67.6402 96.0298 66.1701 95.7898 64.6101Z" stroke="#EB610E" stroke-width="2.2589" stroke-miterlimit="10"/>
<path d="M74.5899 3.03006C74.0299 1.55006 72.3799 0.810053 70.8999 1.37005L27.1599 17.9801L77.3299 10.2301L74.5899 3.03006Z" stroke="#EB610E" stroke-width="2.2589" stroke-miterlimit="10"/>
<path d="M3.63991 26.91C2.15991 27.47 1.41992 29.12 1.97992 30.6L18.0499 72.94L10.5399 24.29L3.63991 26.91Z" stroke="#EB610E" stroke-width="2.2589" stroke-miterlimit="10"/>
</svg>
