<svg width="328" height="80" viewBox="0 0 328 80" fill="none" xmlns="http://www.w3.org/2000/svg">
<path d="M55.4527 0H6.26492C4.60525 0.00613563 3.0153 0.668158 1.84173 1.84173C0.668158 3.0153 0.00613563 4.60525 0 6.26492L0 12.1805H4.19214C4.85638 12.2426 5.47352 12.5504 5.92275 13.0437C6.37198 13.5369 6.62097 14.18 6.62097 14.8472C6.62097 15.5143 6.37198 16.1574 5.92275 16.6507C5.47352 17.1439 4.85638 17.4517 4.19214 17.5138H0V28.9491H4.19214C4.85638 29.0112 5.47352 29.319 5.92275 29.8122C6.37198 30.3055 6.62097 30.9486 6.62097 31.6157C6.62097 32.2829 6.37198 32.926 5.92275 33.4192C5.47352 33.9124 4.85638 34.2202 4.19214 34.2824H0V45.7176H4.19214C4.85638 45.7798 5.47352 46.0876 5.92275 46.5808C6.37198 47.074 6.62097 47.7171 6.62097 48.3843C6.62097 49.0514 6.37198 49.6945 5.92275 50.1878C5.47352 50.681 4.85638 50.9888 4.19214 51.0509H0V62.4862H4.19214C4.85638 62.5483 5.47352 62.8561 5.92275 63.3493C6.37198 63.8426 6.62097 64.4857 6.62097 65.1528C6.62097 65.82 6.37198 66.4631 5.92275 66.9563C5.47352 67.4496 4.85638 67.7574 4.19214 67.8195H0V73.7351C0.00613563 75.3948 0.668158 76.9847 1.84173 78.1583C3.0153 79.3318 4.60525 79.9939 6.26492 80H55.4527C57.1124 79.9939 58.7023 79.3318 59.8759 78.1583C61.0495 76.9847 61.7115 75.3948 61.7176 73.7351V6.19505C61.6932 4.54754 61.0231 2.97542 59.8515 1.81687C58.6799 0.658325 57.1004 0.00592191 55.4527 0ZM40.6172 55.3362C38.7315 56.7463 36.5052 57.6303 34.1659 57.8981V61.8108C34.1598 62.5479 33.8626 63.2528 33.3392 63.7719C32.8157 64.291 32.1084 64.5823 31.3712 64.5822H30.0902C29.3552 64.5822 28.6503 64.2902 28.1305 63.7705C27.6108 63.2507 27.3188 62.5458 27.3188 61.8108V57.7817C26.1662 57.5893 25.0404 57.2609 23.9651 56.8035C22.0873 56.0451 20.4694 54.7589 19.3071 53.1004C18.1916 51.4355 17.6144 49.4681 17.6536 47.4643V46.3464C17.6499 46.2669 17.6648 46.1876 17.6972 46.1148C17.7295 46.042 17.7784 45.9778 17.8399 45.9272C17.8935 45.8694 17.9583 45.8231 18.0304 45.791C18.1024 45.759 18.1802 45.742 18.2591 45.7409H24.0582C24.2246 45.742 24.3837 45.809 24.5007 45.9272C24.5555 45.982 24.5982 46.0475 24.6263 46.1197C24.6543 46.1919 24.6671 46.2691 24.6638 46.3464V47.115C24.6727 47.7999 24.8493 48.4723 25.1781 49.0731C25.507 49.674 25.9781 50.1852 26.5502 50.5619C28.0551 51.5657 29.8443 52.0559 31.6507 51.9592C33.0789 52.0645 34.4982 51.6602 35.6565 50.8181C36.0759 50.4737 36.4129 50.0397 36.6426 49.548C36.8723 49.0563 36.989 48.5194 36.984 47.9767C36.997 47.5973 36.9313 47.2193 36.7911 46.8666C36.6508 46.5139 36.4389 46.194 36.1688 45.9272C35.5267 45.3017 34.7772 44.7969 33.9563 44.4367C33.0247 44.0175 31.6274 43.4352 29.508 42.69C27.5274 42.0586 25.5968 41.2801 23.7322 40.361C22.1706 39.575 20.8147 38.4344 19.7729 37.0306C18.6671 35.5212 18.101 33.6837 18.1659 31.8137C18.1208 29.9172 18.6661 28.0535 19.7263 26.4804C20.8253 24.9189 22.3431 23.6998 24.1048 22.9636C25.1499 22.5171 26.2445 22.1965 27.3654 22.0087V18.1892C27.3654 17.4542 27.6573 16.7493 28.1771 16.2295C28.6969 15.7098 29.4018 15.4178 30.1368 15.4178H31.4178C32.155 15.4177 32.8623 15.709 33.3858 16.2281C33.9092 16.7472 34.2064 17.4521 34.2125 18.1892V22.0087C35.3362 22.231 36.4303 22.5827 37.4731 23.0568C39.3514 23.882 40.9639 25.2123 42.131 26.8996C43.2894 28.5739 43.8923 30.5699 43.8544 32.6055V33.3741C43.8596 33.4551 43.8478 33.5364 43.8197 33.6126C43.7917 33.6888 43.7479 33.7583 43.6914 33.8166C43.6323 33.872 43.5627 33.915 43.4867 33.943C43.4107 33.971 43.3298 33.9834 43.2489 33.9796H37.4032C37.3223 33.9834 37.2414 33.971 37.1654 33.943C37.0894 33.915 37.0198 33.872 36.9607 33.8166C36.9042 33.7583 36.8605 33.6888 36.8324 33.6126C36.8043 33.5364 36.7925 33.4551 36.7977 33.3741V32.9782C36.7834 32.2708 36.6082 31.5761 36.2854 30.9465C35.9626 30.317 35.5006 29.7693 34.9345 29.345C33.5937 28.3475 31.945 27.8529 30.2766 27.9476C28.9486 27.873 27.6324 28.2327 26.5269 28.9723C26.0918 29.2935 25.7414 29.7158 25.506 30.2027C25.2707 30.6897 25.1574 31.2266 25.1761 31.7671C25.1644 32.555 25.4467 33.3189 25.968 33.9098C26.633 34.5735 27.4252 35.0963 28.2969 35.4469C29.3217 35.9127 30.9287 36.5415 33.0946 37.31C35.0313 37.9785 36.9285 38.7561 38.7773 39.639C40.2185 40.3648 41.4826 41.3984 42.4803 42.6667C43.6415 44.1499 44.2286 46.0022 44.1339 47.8836C44.1749 49.3148 43.8779 50.7356 43.2668 52.0305C42.6558 53.3254 41.748 54.458 40.6172 55.3362ZM58.6667 71.8253C58.6655 73.204 58.2079 74.5436 57.3652 75.6348C56.5226 76.726 55.3423 77.5075 54.0087 77.8574C55.011 76.7176 55.5655 75.2528 55.5691 73.7351V6.19505C55.5617 4.70736 55.0251 3.27086 54.0553 2.14265C55.3889 2.49247 56.5691 3.27399 57.4118 4.36522C58.2544 5.45645 58.7121 6.79597 58.7132 8.17467L58.6667 71.8253Z" fill="#16884A"/>
<path d="M82.6784 57.1295C81.6049 56.402 80.7014 55.4509 80.03 54.3413C79.3587 53.2318 78.9354 51.9901 78.7891 50.7016C78.7891 50.3988 78.7891 49.9563 78.7891 49.3973V48.326C78.8042 48.174 78.8606 48.0291 78.9521 47.9068C79.006 47.8509 79.0714 47.8073 79.1438 47.7792C79.2161 47.751 79.2938 47.7389 79.3713 47.7438H84.8444C84.9217 47.7404 84.9989 47.7532 85.0711 47.7813C85.1433 47.8093 85.2088 47.8521 85.2636 47.9068C85.3198 47.9597 85.3619 48.0256 85.3863 48.0988C85.4107 48.172 85.4166 48.25 85.4033 48.326V49.048C85.4076 49.6951 85.5713 50.3312 85.8801 50.8999C86.1888 51.4686 86.633 51.9525 87.1733 52.3086C88.5782 53.2581 90.2543 53.7242 91.9477 53.6361C93.3972 53.7725 94.8428 53.338 95.9768 52.425C96.3792 52.0596 96.6853 51.6008 96.8681 51.0889C97.0509 50.5771 97.1048 50.0281 97.0249 49.4905C96.9385 48.7955 96.5984 48.1569 96.07 47.6972C95.4516 47.1627 94.7519 46.7303 93.9972 46.4163C93.1355 46.0436 91.6682 45.508 89.9681 44.8326C88.2256 44.2416 86.5221 43.5416 84.8677 42.7365C83.4815 42.0571 82.2399 41.116 81.2112 39.965C80.0967 38.7795 79.3873 37.2709 79.185 35.6564C79.185 35.4236 79.185 35.0276 79.185 34.4454C79.1339 33.1101 79.3982 31.7816 79.9567 30.5677C80.5151 29.3537 81.3518 28.2885 82.399 27.4585C84.8291 25.6545 87.8061 24.7416 90.8298 24.8733C92.9196 24.8425 94.9943 25.2305 96.9317 26.0145C98.6454 26.6883 100.16 27.7862 101.333 29.2052C102.443 30.582 103.138 32.246 103.336 34.0029C103.336 34.2591 103.336 34.6783 103.336 35.2605V35.9825C103.332 36.1368 103.274 36.2847 103.173 36.4017C103.123 36.4558 103.062 36.4984 102.993 36.5266C102.925 36.5547 102.851 36.5677 102.777 36.5647H97.3742C97.2969 36.5681 97.2196 36.5553 97.1475 36.5273C97.0753 36.4992 97.0098 36.4564 96.955 36.4017C96.8988 36.3489 96.8566 36.2829 96.8323 36.2097C96.8079 36.1366 96.802 36.0585 96.8153 35.9825V35.6099C96.815 34.9449 96.6664 34.2883 96.3804 33.688C96.0943 33.0877 95.678 32.5588 95.1617 32.1397C93.8429 31.0973 92.1798 30.59 90.5038 30.719C89.1716 30.635 87.8524 31.0225 86.7774 31.8137C86.3532 32.1671 86.032 32.6283 85.8476 33.1488C85.6632 33.6692 85.6223 34.2297 85.7294 34.7714C85.8035 35.4599 86.1265 36.0976 86.6377 36.5647C87.3288 37.1481 88.1171 37.6054 88.9666 37.9155C89.9215 38.3348 91.2956 38.917 93.3218 39.6157C95.348 40.3144 97.1413 41.1062 98.3291 41.6652C99.6177 42.312 100.778 43.188 101.753 44.2503C102.827 45.4315 103.496 46.9246 103.662 48.5123C103.662 48.7452 103.662 49.1412 103.662 49.7234C103.711 51.0968 103.434 52.4622 102.856 53.7086C102.277 54.955 101.412 56.0473 100.332 56.8966C97.7532 58.7804 94.6004 59.7106 91.4121 59.5284C88.323 59.6494 85.2723 58.8114 82.6784 57.1295V57.1295Z" fill="#16884A"/>
<path d="M112.489 57.3625C110.555 55.9344 109.166 53.8884 108.553 51.5633C108.297 50.7434 108.117 49.9013 108.017 49.0481C107.928 48.2749 107.881 47.4974 107.878 46.7191C107.836 44.9849 108.072 43.2552 108.576 41.5954C109.237 39.3311 110.64 37.3544 112.559 35.9825C114.573 34.6068 116.968 33.898 119.406 33.9563C121.806 33.887 124.165 34.589 126.137 35.9593C128.008 37.3534 129.38 39.3134 130.049 41.5488C130.586 43.1712 130.854 44.8705 130.841 46.5793C130.831 48.2322 130.604 49.8765 130.166 51.4702C129.564 53.8261 128.186 55.9102 126.253 57.3858C124.236 58.8742 121.771 59.63 119.266 59.5284C116.832 59.5621 114.453 58.8017 112.489 57.3625ZM122.038 52.7045C122.811 51.9833 123.375 51.0657 123.668 50.0495C123.934 48.9128 124.052 47.7463 124.017 46.5793C124.066 45.8582 124.066 45.1346 124.017 44.4134C123.916 43.1216 123.402 41.8966 122.55 40.92C122.149 40.5015 121.663 40.173 121.125 39.9562C120.587 39.7394 120.009 39.6392 119.429 39.6623C118.451 39.627 117.496 39.9594 116.751 40.5939C115.974 41.2661 115.421 42.1601 115.167 43.1558C114.82 44.2626 114.663 45.4201 114.702 46.5793C114.702 47.3577 114.749 48.1354 114.841 48.9083C114.955 50.1622 115.47 51.3462 116.308 52.2853C116.702 52.7014 117.18 53.0288 117.71 53.2457C118.24 53.4625 118.81 53.5639 119.383 53.543C120.344 53.5919 121.289 53.2851 122.038 52.6812V52.7045Z" fill="#16884A"/>
<path d="M156.04 41.7351C157.282 42.3182 158.351 43.2159 159.139 44.3394C159.928 45.4629 160.409 46.773 160.535 48.1398C160.561 48.6363 160.561 49.1338 160.535 49.6303C160.604 50.9657 160.35 52.298 159.795 53.5143C159.239 54.7306 158.399 55.795 157.344 56.6172C154.922 58.2867 152.014 59.1058 149.076 58.9462H136.663C136.509 58.9413 136.361 58.8838 136.244 58.7832C136.189 58.7284 136.146 58.6628 136.118 58.5907C136.09 58.5185 136.077 58.4413 136.081 58.3639V25.7584C136.093 25.6084 136.159 25.4679 136.267 25.3625C136.314 25.3028 136.374 25.2549 136.443 25.2226C136.512 25.1902 136.587 25.1743 136.663 25.1762H148.704C155.551 25.1762 159.293 27.707 159.929 32.7686C159.976 33.3343 159.976 33.903 159.929 34.4687C160.038 35.9092 159.707 37.3487 158.979 38.5964C158.251 39.8442 157.161 40.8413 155.854 41.4556C155.745 41.5488 155.807 41.642 156.04 41.7351ZM142.974 31.1849C142.962 31.2103 142.956 31.2382 142.956 31.2664C142.956 31.2947 142.962 31.3225 142.974 31.3479V38.8938C142.974 39.0568 142.974 39.1267 143.207 39.1267H148.843C150.083 39.1941 151.309 38.8322 152.314 38.1019C152.734 37.742 153.066 37.2901 153.284 36.7813C153.502 36.2724 153.601 35.7203 153.571 35.1674V34.5852C153.527 34.0826 153.377 33.5949 153.132 33.1537C152.888 32.7124 152.553 32.3273 152.15 32.0233C151.175 31.3725 150.015 31.054 148.843 31.115H143.068C143.037 31.1141 143.006 31.1198 142.978 31.1319C142.95 31.1439 142.925 31.162 142.904 31.1849H142.974ZM152.826 51.8661C153.24 51.3677 153.535 50.7813 153.688 50.1518C153.841 49.5222 153.849 48.866 153.711 48.2329C153.668 47.7208 153.518 47.2234 153.269 46.7738C153.02 46.3241 152.678 45.9324 152.267 45.6245C151.323 44.9596 150.183 44.6315 149.03 44.6929H143.091C142.928 44.6929 142.858 44.6929 142.881 44.9491V52.9607C142.881 53.1238 142.881 53.2169 143.091 53.2169H149.053C149.731 53.2762 150.415 53.1859 151.054 52.9525C151.694 52.7192 152.275 52.3483 152.756 51.8661H152.826Z" fill="#16884A"/>
<path d="M180.658 34.4221C180.707 34.3667 180.769 34.3232 180.837 34.295C180.906 34.2667 180.98 34.2545 181.054 34.2591H186.69C186.767 34.2558 186.845 34.2685 186.917 34.2966C186.989 34.3246 187.054 34.3674 187.109 34.4221C187.163 34.4714 187.205 34.5333 187.229 34.6025C187.253 34.6716 187.26 34.7456 187.249 34.818V58.5269C187.236 58.6836 187.17 58.8314 187.063 58.9461C187.011 58.998 186.949 59.0391 186.881 59.0671C186.813 59.095 186.74 59.1093 186.667 59.1092H181.054C180.98 59.1093 180.908 59.095 180.84 59.0671C180.772 59.0391 180.71 58.998 180.658 58.9461C180.599 58.8944 180.554 58.8293 180.525 58.7564C180.497 58.6834 180.487 58.6047 180.495 58.5269V56.4541C180.495 56.3144 180.495 56.2445 180.495 56.2212C180.495 56.198 180.495 56.2213 180.309 56.361C179.683 57.376 178.794 58.2024 177.736 58.752C176.677 59.3015 175.49 59.5538 174.3 59.4818C172.25 59.5075 170.257 58.8154 168.664 57.5255C166.986 56.1841 165.798 54.3253 165.287 52.2387C165.1 51.5581 164.96 50.8656 164.868 50.1659C164.703 48.977 164.61 47.7794 164.588 46.5793C164.538 44.5031 164.797 42.431 165.357 40.4309C165.987 38.5734 167.164 36.9499 168.734 35.7729C170.381 34.5298 172.4 33.8812 174.463 33.933C175.58 33.846 176.701 34.0593 177.708 34.5506C178.715 35.042 179.573 35.7937 180.192 36.7278C180.192 36.7278 180.332 36.8908 180.402 36.8908C180.472 36.8908 180.402 36.8908 180.402 36.6812V34.9345C180.403 34.8352 180.426 34.7375 180.471 34.6487C180.515 34.5599 180.579 34.4824 180.658 34.4221V34.4221ZM180.355 49.1878C180.463 48.3695 180.51 47.5443 180.495 46.7191C180.562 45.9442 180.562 45.165 180.495 44.3901C180.4 43.7104 180.22 43.0453 179.959 42.4105C179.715 41.6065 179.226 40.8985 178.562 40.3843C177.887 39.8889 177.07 39.6272 176.233 39.639C175.355 39.6151 174.494 39.8857 173.787 40.4076C173.114 40.9377 172.605 41.6485 172.32 42.4571C171.833 43.775 171.603 45.1746 171.645 46.5793C171.596 47.3549 171.596 48.1328 171.645 48.9083C171.728 49.5073 171.885 50.0939 172.111 50.655C172.365 51.4853 172.879 52.2119 173.578 52.7278C174.293 53.2498 175.161 53.5201 176.047 53.4964C176.889 53.5179 177.712 53.2462 178.376 52.7278C179.04 52.1941 179.527 51.4713 179.773 50.655C180.023 50.1903 180.219 49.6979 180.355 49.1878V49.1878Z" fill="#16884A"/>
<path d="M211.284 35.7962C212.841 37.1761 213.809 39.1025 213.985 41.1761C213.985 41.4556 213.985 41.9447 213.985 42.6667V58.5269C213.98 58.6812 213.923 58.8291 213.822 58.9461C213.77 58.998 213.708 59.0391 213.64 59.0671C213.573 59.095 213.5 59.1093 213.426 59.1092H207.837C207.758 59.1159 207.678 59.1056 207.603 59.079C207.528 59.0525 207.459 59.0102 207.402 58.9551C207.345 58.9 207.3 58.8333 207.27 58.7595C207.241 58.6856 207.228 58.6064 207.231 58.5269V44.064C207.261 43.8087 207.261 43.5508 207.231 43.2955C207.134 42.3113 206.688 41.3945 205.974 40.7103C205.63 40.3813 205.225 40.1234 204.781 39.9515C204.337 39.7797 203.864 39.6972 203.388 39.7089C202.853 39.6864 202.32 39.7811 201.825 39.9863C201.33 40.1914 200.886 40.5021 200.524 40.8966C199.766 41.7731 199.375 42.907 199.429 44.064V58.5269C199.424 58.6812 199.367 58.8291 199.266 58.9461C199.214 58.998 199.152 59.0391 199.084 59.0671C199.016 59.095 198.944 59.1093 198.87 59.1092H193.304C193.15 59.1043 193.002 59.0468 192.885 58.9461C192.833 58.8902 192.794 58.8239 192.77 58.7516C192.746 58.6793 192.737 58.6027 192.745 58.5269V34.9345C192.753 34.7879 192.811 34.6484 192.908 34.5386C192.957 34.4831 193.019 34.4397 193.087 34.4114C193.156 34.3832 193.23 34.3709 193.304 34.3755H198.894C198.971 34.3722 199.048 34.385 199.12 34.413C199.192 34.4411 199.258 34.4838 199.313 34.5386C199.363 34.591 199.401 34.6533 199.425 34.7216C199.449 34.7898 199.458 34.8624 199.452 34.9345V36.6346C199.438 36.6636 199.431 36.6955 199.431 36.7278C199.431 36.7601 199.438 36.792 199.452 36.821C199.452 36.821 199.452 36.821 199.615 36.821C200.26 35.8897 201.136 35.1422 202.156 34.6522C203.177 34.1621 204.308 33.9464 205.438 34.0262C207.538 33.8783 209.619 34.5083 211.284 35.7962V35.7962Z" fill="#16884A"/>
<path d="M237.81 25.4323C237.859 25.3751 237.92 25.329 237.988 25.2969C238.056 25.2648 238.131 25.2474 238.206 25.246H243.842C243.921 25.247 243.999 25.2641 244.071 25.2961C244.143 25.3281 244.208 25.3745 244.261 25.4323C244.317 25.4802 244.36 25.542 244.384 25.6115C244.409 25.681 244.415 25.7558 244.401 25.8282V58.4337C244.396 58.588 244.339 58.7359 244.238 58.853C244.186 58.9048 244.124 58.9459 244.056 58.9739C243.988 59.0019 243.916 59.0162 243.842 59.016H238.206C238.052 59.0111 237.904 58.9536 237.787 58.853C237.731 58.8001 237.688 58.7341 237.664 58.661C237.64 58.5878 237.634 58.5097 237.647 58.4337V45.1819C237.647 45.0189 237.647 44.949 237.414 44.949H226.794C226.631 44.949 226.561 44.949 226.584 45.1819V58.5269C226.571 58.6836 226.506 58.8313 226.398 58.9461C226.346 58.998 226.284 59.0391 226.216 59.067C226.148 59.095 226.076 59.1093 226.002 59.1091H220.389C220.234 59.1083 220.085 59.0503 219.97 58.9461C219.915 58.8913 219.873 58.8258 219.845 58.7536C219.817 58.6815 219.804 58.6043 219.807 58.5269V25.9214C219.82 25.7713 219.886 25.6309 219.993 25.5254C220.04 25.4658 220.101 25.4179 220.169 25.3855C220.238 25.3532 220.313 25.3373 220.389 25.3391H225.909C225.988 25.3372 226.067 25.3529 226.14 25.3851C226.212 25.4174 226.277 25.4653 226.328 25.5254C226.382 25.5758 226.425 25.6372 226.453 25.7056C226.481 25.7739 226.494 25.8475 226.491 25.9214V38.9403C226.491 39.1033 226.491 39.1732 226.724 39.1732H237.554C237.717 39.1732 237.787 39.1732 237.763 38.9403V25.8282C237.734 25.6948 237.75 25.5552 237.81 25.4323V25.4323Z" fill="#16884A"/>
<path d="M265.502 34.4221C265.557 34.3674 265.623 34.3246 265.695 34.2966C265.767 34.2685 265.844 34.2558 265.921 34.2591H271.534C271.612 34.2558 271.689 34.2685 271.761 34.2966C271.833 34.3246 271.899 34.3674 271.953 34.4221C272.006 34.4734 272.048 34.535 272.076 34.6031C272.104 34.6712 272.118 34.7444 272.116 34.818V58.5269C272.112 58.6812 272.054 58.8291 271.953 58.9461C271.846 59.0469 271.705 59.1049 271.558 59.1092H265.921C265.767 59.1043 265.619 59.0468 265.502 58.9461C265.447 58.8914 265.405 58.8258 265.377 58.7537C265.349 58.6815 265.336 58.6043 265.339 58.5269V56.4541C265.339 56.3144 265.339 56.2445 265.339 56.2212C265.297 56.2199 265.255 56.233 265.221 56.2584C265.188 56.2838 265.163 56.32 265.153 56.361C264.522 57.3761 263.628 58.202 262.566 58.7513C261.504 59.3006 260.314 59.553 259.121 59.4818C257.072 59.5036 255.079 58.812 253.485 57.5255C251.813 56.1783 250.627 54.3219 250.108 52.2387C249.918 51.5602 249.785 50.8668 249.712 50.1659C249.571 48.9912 249.501 47.809 249.502 46.6259C249.46 44.5316 249.735 42.443 250.317 40.4309C250.94 38.5693 252.119 36.9436 253.694 35.7729C255.341 34.5298 257.361 33.8812 259.424 33.933C260.541 33.846 261.661 34.0593 262.669 34.5506C263.676 35.042 264.534 35.7937 265.153 36.7278C265.153 36.7278 265.293 36.8908 265.339 36.8908C265.386 36.8908 265.339 36.8908 265.339 36.6812V34.9345C265.336 34.7504 265.393 34.5704 265.502 34.4221V34.4221ZM265.223 49.1878C265.331 48.3695 265.377 47.5443 265.362 46.7191C265.417 45.9437 265.417 45.1655 265.362 44.3901C265.258 43.7098 265.07 43.0449 264.804 42.4105C264.568 41.6082 264.088 40.8997 263.429 40.3843C262.755 39.8889 261.937 39.6272 261.1 39.639C260.222 39.6151 259.362 39.8857 258.655 40.4076C257.981 40.9325 257.479 41.6459 257.211 42.4571C256.672 43.7639 256.403 45.166 256.419 46.5793C256.359 47.3545 256.359 48.1332 256.419 48.9083C256.492 49.5095 256.649 50.0975 256.885 50.655C257.117 51.5175 257.635 52.2754 258.354 52.8045C259.074 53.3335 259.952 53.6021 260.844 53.5662C261.685 53.5783 262.505 53.3077 263.173 52.7977C263.831 52.2572 264.316 51.5369 264.571 50.7249C264.808 50.2327 264.996 49.7177 265.13 49.1878H265.223Z" fill="#16884A"/>
<path d="M296.035 35.7963C297.601 37.1702 298.57 39.0999 298.737 41.1762C298.763 41.6727 298.763 42.1702 298.737 42.6667V58.527C298.724 58.6837 298.658 58.8314 298.55 58.9462C298.498 58.9981 298.437 59.0392 298.369 59.0671C298.301 59.0951 298.228 59.1094 298.155 59.1092H292.588C292.508 59.1157 292.427 59.1054 292.351 59.079C292.275 59.0527 292.205 59.0108 292.146 58.9561C292.087 58.9014 292.04 58.835 292.008 58.7611C291.976 58.6872 291.959 58.6075 291.959 58.527V44.0641C291.978 43.8082 291.978 43.5514 291.959 43.2955C291.864 42.3059 291.408 41.3858 290.679 40.7104C290.336 40.3792 289.931 40.1199 289.487 39.9479C289.043 39.7759 288.569 39.6947 288.093 39.7089C287.558 39.6865 287.025 39.7812 286.53 39.9863C286.035 40.1915 285.591 40.5022 285.229 40.8967C284.469 41.7705 284.084 42.9085 284.157 44.0641V58.527C284.142 58.679 284.086 58.8239 283.994 58.9462C283.877 59.0468 283.729 59.1044 283.575 59.1092H278.079C277.925 59.1044 277.777 59.0468 277.66 58.9462C277.605 58.8914 277.562 58.8259 277.534 58.7537C277.506 58.6816 277.493 58.6043 277.497 58.527V34.9346C277.516 34.7907 277.572 34.6543 277.66 34.5386C277.714 34.4827 277.779 34.4391 277.851 34.411C277.924 34.3828 278.001 34.3708 278.079 34.3756H283.645C283.722 34.3723 283.8 34.385 283.872 34.4131C283.944 34.4411 284.01 34.4839 284.064 34.5386C284.138 34.6565 284.163 34.7985 284.134 34.9346V36.6347C284.134 36.6347 284.134 36.7977 284.134 36.821C284.134 36.8443 284.134 36.821 284.32 36.821C284.961 35.8863 285.837 35.1363 286.858 34.6458C287.88 34.1554 289.013 33.9417 290.143 34.0263C292.259 33.8644 294.359 34.4953 296.035 35.7963V35.7963Z" fill="#16884A"/>
<path d="M319.372 34.4221C319.421 34.3667 319.483 34.3233 319.551 34.295C319.62 34.2668 319.694 34.2545 319.768 34.2591H325.381C325.458 34.2558 325.535 34.2685 325.607 34.2966C325.68 34.3247 325.745 34.3674 325.8 34.4221C325.887 34.4745 325.957 34.5505 326.002 34.6412C326.048 34.7319 326.066 34.8336 326.056 34.9345V56.9898C326.203 58.6812 325.948 60.3832 325.313 61.9575C324.677 63.5318 323.679 64.9339 322.4 66.0495C319.675 67.949 316.401 68.8985 313.084 68.7511C311.966 68.7511 310.755 68.7511 309.287 68.5182C309.215 68.5099 309.144 68.4866 309.081 68.4499C309.017 68.4132 308.962 68.3639 308.918 68.3049C308.874 68.2459 308.843 68.1786 308.827 68.1072C308.81 68.0357 308.808 67.9616 308.822 67.8894L309.031 62.9054C309.031 62.4862 309.218 62.2999 309.66 62.3698C310.715 62.5453 311.782 62.6388 312.851 62.6492C314.512 62.7457 316.157 62.2688 317.509 61.2984C318.093 60.7447 318.542 60.0638 318.821 59.3085C319.1 58.5532 319.2 57.7439 319.116 56.9433C319.116 56.9433 319.116 56.8035 319.116 56.7802C319.088 56.7612 319.056 56.751 319.023 56.751C318.989 56.751 318.957 56.7612 318.929 56.7802C318.229 57.4658 317.392 57.9964 316.473 58.3374C315.554 58.6785 314.574 58.8224 313.596 58.7599C311.586 58.773 309.608 58.2505 307.867 57.246C306.052 56.1339 304.722 54.3797 304.14 52.3319C303.895 51.5263 303.723 50.7 303.628 49.8632C303.535 49.0248 303.465 47.9302 303.418 46.5794C303.386 44.4976 303.677 42.4235 304.28 40.4309C304.918 38.5711 306.104 36.9476 307.68 35.773C309.287 34.5779 311.244 33.9474 313.247 33.9796C314.305 33.913 315.364 34.088 316.345 34.4915C317.326 34.895 318.201 35.5164 318.906 36.3086H319.116C319.116 36.3086 319.116 36.3086 319.116 36.1223V34.9345C319.12 34.8359 319.145 34.7392 319.189 34.6509C319.233 34.5626 319.295 34.4846 319.372 34.4221V34.4221ZM319.209 46.5794C319.27 45.8043 319.27 45.0255 319.209 44.2504C319.151 43.7438 319.042 43.2443 318.883 42.7599C318.638 41.9243 318.142 41.1843 317.462 40.6405C316.734 40.1067 315.85 39.8283 314.947 39.8486C314.066 39.8315 313.205 40.1103 312.501 40.6405C311.814 41.1918 311.297 41.9266 311.011 42.7599C310.507 44.0004 310.277 45.3349 310.336 46.6725C310.283 47.378 310.283 48.0864 310.336 48.7919C310.39 49.3965 310.547 49.9873 310.801 50.5386C311.046 51.3861 311.572 52.1252 312.292 52.6347C313.034 53.1787 313.934 53.465 314.854 53.4498C315.776 53.4813 316.681 53.1934 317.416 52.6347C318.089 52.1188 318.579 51.4004 318.813 50.5852C319.102 49.2702 319.235 47.9256 319.209 46.5794Z" fill="#16884A"/>
</svg>
